<svg width="32" height="32" viewBox="0 0 32 32" fill="none" xmlns="http://www.w3.org/2000/svg">
<path fill-rule="evenodd" clip-rule="evenodd" d="M21.3346 14.6666H13.7826L15.4493 12.92C15.9573 12.388 15.9373 11.544 15.4053 11.0346C14.872 10.528 14.0293 10.5466 13.52 11.08L9.70263 15.08C9.65197 15.1333 9.6293 15.2 9.58797 15.26C9.5333 15.3386 9.47197 15.4106 9.43597 15.5013C9.38663 15.6226 9.37063 15.7493 9.35997 15.8786C9.35597 15.92 9.33463 15.9573 9.33463 16C9.33463 16.0026 9.33597 16.004 9.33597 16.0066C9.3373 16.18 9.37063 16.352 9.43863 16.5146C9.5053 16.676 9.60397 16.8213 9.7253 16.944L13.7253 20.9426C13.9853 21.2026 14.3266 21.3333 14.668 21.3333C15.0093 21.3333 15.3506 21.2026 15.6106 20.9426C16.132 20.4213 16.132 19.5786 15.6106 19.0573L13.8866 17.3333H21.3346C22.0706 17.3333 22.668 16.736 22.668 16C22.668 15.264 22.0706 14.6666 21.3346 14.6666ZM16.0013 26.6666C10.12 26.6666 5.33464 21.8813 5.33464 16C5.33464 10.1186 10.12 5.33329 16.0013 5.33329C21.8826 5.33329 26.668 10.1186 26.668 16C26.668 21.8813 21.8826 26.6666 16.0013 26.6666ZM16.0013 2.66663C8.6493 2.66663 2.66797 8.64796 2.66797 16C2.66797 23.352 8.6493 29.3333 16.0013 29.3333C23.3533 29.3333 29.3346 23.352 29.3346 16C29.3346 8.64796 23.3533 2.66663 16.0013 2.66663Z" fill="white"/>
</svg>
