<svg width="16" height="16" viewBox="0 0 16 16" fill="none" xmlns="http://www.w3.org/2000/svg">
<path fill-rule="evenodd" clip-rule="evenodd" d="M14.742 1.26921C15.3665 1.89434 15.3661 2.9074 14.7409 3.53195L3.53089 14.7315C2.90576 15.3561 1.8927 15.3556 1.26815 14.7305C0.643603 14.1054 0.644075 13.0923 1.26921 12.4677L12.4792 1.26815C13.1044 0.643603 14.1174 0.644075 14.742 1.26921Z" fill="#020202"/>
<path fill-rule="evenodd" clip-rule="evenodd" d="M14.742 14.7309C14.1174 15.356 13.1044 15.3565 12.4792 14.7319L1.26921 3.53235C0.644077 2.90781 0.643606 1.89474 1.26815 1.26961C1.8927 0.644484 2.90576 0.644013 3.53089 1.26856L14.7409 12.4682C15.3661 13.0927 15.3665 14.1058 14.742 14.7309Z" fill="#020202"/>
</svg>
