<?xml version="1.0" encoding="UTF-8"?>
<svg width="863px" height="144px" viewBox="0 0 863 144" version="1.1" xmlns="http://www.w3.org/2000/svg" xmlns:xlink="http://www.w3.org/1999/xlink">
    <!-- Generator: Sketch 53.2 (72643) - https://sketchapp.com -->
    <title>Group Copy 2</title>
    <desc>Created with Sketch.</desc>
    <defs>
        <linearGradient x1="85.35535%" y1="14.644675%" x2="14.644675%" y2="85.35535%" id="linearGradient-1">
            <stop stop-color="#FF2D55" offset="0%"></stop>
            <stop stop-color="#FFBC5B" offset="100%"></stop>
        </linearGradient>
        <linearGradient x1="49.9664%" y1="6.66666667e-05%" x2="49.9664%" y2="100.000067%" id="linearGradient-2">
            <stop stop-color="#A524B3" offset="0%"></stop>
            <stop stop-color="#FF2D55" offset="100%"></stop>
        </linearGradient>
        <linearGradient x1="49.9664%" y1="6.66666667e-05%" x2="49.9664%" y2="100.000067%" id="linearGradient-3">
            <stop stop-color="#A524B3" offset="0%"></stop>
            <stop stop-color="#FF2D55" offset="100%"></stop>
        </linearGradient>
    </defs>
    <g id="ui-kit" stroke="none" stroke-width="1" fill="none" fill-rule="evenodd">
        <g id="logo-copy-2" transform="translate(-58.000000, -1135.000000)">
            <g id="Group-Copy-2" transform="translate(58.000000, 1135.000000)">
                <g id="144">
                    <circle id="world" fill="url(#linearGradient-1)" cx="72" cy="72" r="72"></circle>
                    <g id="big-pyramid" transform="translate(5.760000, 46.800000)">
                        <polygon id="shadow" fill="url(#linearGradient-2)" points="45.252 0 45.252 54 90.252 54"></polygon>
                        <polygon id="light" fill="#FFFFFF" points="0.252 54 45.252 54 45.252 0"></polygon>
                    </g>
                    <path d="M28.8,129.6 C40.824,138.636 55.8,144 72,144 C88.2,144 103.176,138.636 115.2,129.6 L28.8,129.6 Z" id="end" fill="#FF2D55"></path>
                    <path d="M14.4,115.2 C18.504,120.636 23.364,125.496 28.8,129.6 L115.2,129.6 C120.636,125.496 125.496,120.636 129.6,115.2 L14.4,115.2 Z" id="horizon" fill="#FC9965"></path>
                    <path d="M96.588,100.8 L6.012,100.8 C8.244,105.948 11.088,110.772 14.4,115.2 L96.624,115.2 L96.624,100.8 L96.588,100.8 Z" id="ground" fill="#FFBC5B"></path>
                    <g id="small-pyramid" transform="translate(63.360000, 75.600000)">
                        <polygon id="shadow" fill="url(#linearGradient-3)" points="33.228 0 33.228 39.6 66.24 39.6"></polygon>
                        <polygon id="light" fill="#FFFFFF" points="0.252 39.6 33.228 39.6 33.228 0"></polygon>
                    </g>
                    <circle id="big-moon" fill="#FFC95B" cx="96.588" cy="46.8" r="18"></circle>
                    <circle id="small-moon" fill="#FFC95B" cx="51.012" cy="27" r="9"></circle>
                </g>
                <path d="M194,33.6441678 L223.17723,33.6441678 C246.726642,33.6441678 260.659588,47.8401048 260.659588,72.6965924 C260.659588,97.5530799 246.781281,112.129751 223.17723,112.129751 L194,112.129751 L194,33.6441678 Z M208.096864,45.5013106 L208.096864,100.272608 L221.701976,100.272608 C237.547288,100.272608 246.28953,90.6454784 246.28953,72.750983 C246.28953,55.1828309 237.43801,45.5013106 221.701976,45.5013106 L208.096864,45.5013106 Z M296.229582,62.4167759 C288.252287,62.4167759 282.460552,68.1821756 281.859523,76.6671035 L310.162529,76.6671035 C309.889334,68.0733945 304.316155,62.4167759 296.229582,62.4167759 Z M310.217168,94.4528178 L323.002695,94.4528178 C321.254247,105.439712 310.65428,113 296.721333,113 C279.072934,113 268.145132,101.360419 268.145132,82.6500655 C268.145132,63.9397117 279.127573,51.8650066 296.229582,51.8650066 C312.949118,51.8650066 323.549085,63.2326343 323.549085,81.2359109 L323.549085,85.6959371 L281.750245,85.6959371 L281.750245,86.5117955 C281.750245,96.0845347 287.869814,102.448231 296.994528,102.448231 C303.551209,102.448231 308.632636,99.3479685 310.217168,94.4528178 Z M384.963329,73.7300131 L372.123162,73.7300131 C371.13966,67.4750983 366.440706,62.906291 358.791245,62.906291 C349.830448,62.906291 343.984074,70.4121887 343.984074,82.3781127 C343.984074,94.7247706 349.885087,101.958716 358.845884,101.958716 C366.112872,101.958716 370.921104,98.2057667 372.177801,91.4613368 L385.017968,91.4613368 C383.870549,104.460682 373.653055,113 358.736606,113 C341.416041,113 330.160405,101.360419 330.160405,82.3781127 C330.160405,63.77654 341.361402,51.8650066 358.627328,51.8650066 C374.254084,51.8650066 384.034466,61.4921363 384.963329,73.7300131 Z M419.00343,62.4167759 C411.026135,62.4167759 405.234401,68.1821756 404.633371,76.6671035 L432.936377,76.6671035 C432.663182,68.0733945 427.090003,62.4167759 419.00343,62.4167759 Z M432.991016,94.4528178 L445.776544,94.4528178 C444.028095,105.439712 433.428128,113 419.495181,113 C401.846782,113 390.918981,101.360419 390.918981,82.6500655 C390.918981,63.9397117 401.901421,51.8650066 419.00343,51.8650066 C435.722966,51.8650066 446.322934,63.2326343 446.322934,81.2359109 L446.322934,85.6959371 L404.524093,85.6959371 L404.524093,86.5117955 C404.524093,96.0845347 410.643662,102.448231 419.768376,102.448231 C426.325057,102.448231 431.406485,99.3479685 432.991016,94.4528178 Z M455.447648,112.129751 L455.447648,52.680865 L468.50637,52.680865 L468.50637,63.0150721 L468.779566,63.0150721 C472.331101,55.7811271 478.341392,51.9737877 487.520745,51.9737877 C500.743385,51.9737877 508.283567,60.2955439 508.283567,74.0563565 L508.283567,112.129751 L494.678455,112.129751 L494.678455,76.7214941 C494.678455,68.2365662 490.635168,63.4501966 482.439317,63.4501966 C474.079549,63.4501966 469.052761,69.3243775 469.052761,78.0268676 L469.052761,112.129751 L455.447648,112.129751 Z M523.418572,39.4095675 L537.023685,39.4095675 L537.023685,52.680865 L548.333959,52.680865 L548.333959,63.1782438 L537.023685,63.1782438 L537.023685,94.5072084 C537.023685,99.4023591 539.318523,101.741153 544.236034,101.741153 C545.54737,101.741153 547.405096,101.577982 548.27932,101.469201 L548.27932,111.857798 C546.804067,112.184142 544.017478,112.401704 541.121611,112.401704 C528.445361,112.401704 523.418572,107.832896 523.418572,96.3564875 L523.418572,63.1782438 L515.27736,63.1782438 L515.27736,52.680865 L523.418572,52.680865 L523.418572,39.4095675 Z M557.950425,112.129751 L557.950425,52.680865 L571.009147,52.680865 L571.009147,63.0150721 L571.282342,63.0150721 C573.194708,56.0530799 578.54933,52.0281782 585.597762,52.0281782 C587.400849,52.0281782 588.930742,52.2457405 589.968883,52.5720839 L589.968883,64.8643512 C588.821464,64.4292267 586.690542,64.1028834 584.341065,64.1028834 C576.36377,64.1028834 571.555537,69.2699869 571.555537,77.6461337 L571.555537,112.129751 L557.950425,112.129751 Z M617.561581,102.39384 C625.812071,102.39384 632.095557,97.2811271 632.095557,90.0471822 L632.095557,85.5327654 L618.435805,86.4030144 C611.0049,86.8925295 607.070892,89.7208388 607.070892,94.561599 C607.070892,99.3479685 611.223456,102.39384 617.561581,102.39384 Z M613.572934,112.782438 C601.825547,112.782438 593.41114,105.657274 593.41114,95.1055046 C593.41114,84.4993447 601.552352,78.4619921 616.578079,77.5373526 L632.095557,76.612713 L632.095557,72.2614679 C632.095557,65.9521625 627.833714,62.525557 620.512088,62.525557 C614.33788,62.525557 609.91212,65.7346003 608.983257,70.5209699 L596.416286,70.5209699 C596.74412,59.6428571 606.906975,51.8650066 620.9492,51.8650066 C635.865648,51.8650066 645.536753,59.5884666 645.536753,71.3912189 L645.536753,112.129751 L632.47803,112.129751 L632.47803,102.557012 L632.150196,102.557012 C628.871856,108.920708 621.49559,112.782438 613.572934,112.782438 Z M657.393417,112.129751 L657.393417,30 L670.99853,30 L670.99853,112.129751 L657.393417,112.129751 Z M704.656158,102.39384 C712.906648,102.39384 719.190134,97.2811271 719.190134,90.0471822 L719.190134,85.5327654 L705.530382,86.4030144 C698.099477,86.8925295 694.165469,89.7208388 694.165469,94.561599 C694.165469,99.3479685 698.318033,102.39384 704.656158,102.39384 Z M700.667511,112.782438 C688.920124,112.782438 680.505717,105.657274 680.505717,95.1055046 C680.505717,84.4993447 688.646929,78.4619921 703.672656,77.5373526 L719.190134,76.612713 L719.190134,72.2614679 C719.190134,65.9521625 714.928291,62.525557 707.606664,62.525557 C701.432457,62.525557 697.006697,65.7346003 696.077834,70.5209699 L683.510862,70.5209699 C683.838697,59.6428571 694.001552,51.8650066 708.043777,51.8650066 C722.960225,51.8650066 732.63133,59.5884666 732.63133,71.3912189 L732.63133,112.129751 L719.572607,112.129751 L719.572607,102.557012 L719.244773,102.557012 C715.966433,108.920708 708.590167,112.782438 700.667511,112.782438 Z M744.050882,112.129751 L744.050882,52.680865 L757.109605,52.680865 L757.109605,63.0150721 L757.3828,63.0150721 C760.934335,55.7811271 766.944626,51.9737877 776.123979,51.9737877 C789.346619,51.9737877 796.886802,60.2955439 796.886802,74.0563565 L796.886802,112.129751 L783.281689,112.129751 L783.281689,76.7214941 C783.281689,68.2365662 779.238402,63.4501966 771.042551,63.4501966 C762.682783,63.4501966 757.655995,69.3243775 757.655995,78.0268676 L757.655995,112.129751 L744.050882,112.129751 Z M830.54443,112.782438 C815.627981,112.782438 805.683682,100.870904 805.683682,82.3781127 C805.683682,63.9397117 815.68262,52.0281782 830.489791,52.0281782 C839.122754,52.0281782 845.843352,56.1074705 849.067053,62.6887287 L849.394887,62.6887287 L849.394887,30 L863,30 L863,112.129751 L849.668082,112.129751 L849.668082,102.013106 L849.394887,102.013106 C846.171186,108.648755 839.286671,112.782438 830.54443,112.782438 Z M834.533077,63.2870249 C825.517641,63.2870249 819.616629,70.7929227 819.616629,82.4325033 C819.616629,94.1264744 825.517641,101.523591 834.533077,101.523591 C843.548514,101.523591 849.449526,93.9633028 849.449526,82.4325033 C849.449526,70.9560944 843.493875,63.2870249 834.533077,63.2870249 Z" id="Decentraland" fill="#FFFFFF" fill-rule="nonzero"></path>
            </g>
        </g>
    </g>
</svg>