<svg width="28" height="28" viewBox="0 0 28 28" fill="none" xmlns="http://www.w3.org/2000/svg">
<path d="M14 0C6.2804 0 0 6.2804 0 14C0 21.7196 6.2804 28 14 28C21.7196 28 28 21.7196 28 14C28 6.2804 21.7196 0 14 0ZM15.4 22.4H12.6V19.6H15.4V22.4ZM16.7664 15.561C16.492 15.7822 16.2274 15.9936 16.0174 16.2036C15.4462 16.7734 15.4014 17.2914 15.4 17.3138V17.5H12.6V17.2662C12.6 17.101 12.6406 15.6184 14.0364 14.2226C14.3094 13.9496 14.6482 13.6724 15.0038 13.384C16.0314 12.551 16.7062 11.9434 16.7062 11.1062C16.6899 10.3989 16.3975 9.72615 15.8915 9.23177C15.3855 8.73738 14.7061 8.46068 13.9986 8.46086C13.2912 8.46104 12.6119 8.7381 12.1061 9.23275C11.6004 9.72739 11.3083 10.4003 11.2924 11.1076H8.4924C8.4924 8.071 10.9634 5.6 14 5.6C17.0366 5.6 19.5076 8.071 19.5076 11.1076C19.5076 13.3434 17.857 14.6776 16.7664 15.561V15.561Z" fill="#716B7C"/>
</svg>
